<mxfile host="65bd71144e">
    <diagram name="Lab System Architecture" id="0">
        <mxGraphModel dx="801" dy="747" grid="1" gridSize="10" guides="1" tooltips="1" connect="1" arrows="1" fold="1" page="1" pageScale="1" pageWidth="1100" pageHeight="850" math="0" shadow="0">
            <root>
                <mxCell id="0"/>
                <mxCell id="1" parent="0"/>
                <mxCell id="lane_UI Layer" value="UI Layer" style="shape=swimlane;rounded=1;horizontal=0;startSize=28;swimlaneFillColor=#82B366;strokeColor=#82b366;fontStyle=1;rotation=90;fillColor=#d5e8d4;" parent="1" vertex="1">
                    <mxGeometry x="341.3" y="-232.5" width="62.41" height="722.71" as="geometry"/>
                </mxCell>
                <mxCell id="41" value="Student booking portal, staff dashboard" style="text;html=1;align=center;verticalAlign=middle;whiteSpace=wrap;rounded=0;" vertex="1" parent="lane_UI Layer">
                    <mxGeometry x="-106.29999999999997" y="362" width="290" height="30" as="geometry"/>
                </mxCell>
                <mxCell id="lane_Application Layer" value="Application Layer" style="shape=swimlane;rounded=1;horizontal=0;startSize=28;swimlaneFillColor=#D79B00;strokeColor=#d79b00;fontStyle=1;rotation=90;fillColor=#ffe6cc;" parent="1" vertex="1">
                    <mxGeometry x="148.13" y="40" width="86.87" height="361.25" as="geometry"/>
                </mxCell>
                <mxCell id="42" value="Booking Service, Maintenance Service, Notification Service, Analytics" style="text;html=1;align=center;verticalAlign=middle;whiteSpace=wrap;rounded=0;" vertex="1" parent="lane_Application Layer">
                    <mxGeometry x="-96.56" y="178.12" width="280" height="30" as="geometry"/>
                </mxCell>
                <mxCell id="lane_Data Layer" value="Data Layer" style="shape=swimlane;rounded=1;horizontal=0;startSize=28;swimlaneFillColor=#9673A6;strokeColor=#9673a6;fontStyle=1;rotation=90;fillColor=#e1d5e7;" parent="1" vertex="1">
                    <mxGeometry x="335" y="-45" width="75" height="730" as="geometry"/>
                </mxCell>
                <mxCell id="44" value="Booking DB, Equipment DB, Audit Logs" style="text;html=1;align=center;verticalAlign=middle;whiteSpace=wrap;rounded=0;" vertex="1" parent="lane_Data Layer">
                    <mxGeometry x="-92.49999999999999" y="365" width="260" height="30" as="geometry"/>
                </mxCell>
                <mxCell id="lane_Integrations" value="Integrations" style="shape=swimlane;rounded=1;horizontal=0;startSize=28;swimlaneFillColor=#B85450;strokeColor=#b85450;fontStyle=1;rotation=90;fillColor=#f8cecc;" parent="1" vertex="1">
                    <mxGeometry x="517.5" y="42.5" width="85" height="355" as="geometry"/>
                </mxCell>
                <mxCell id="43" value="SSO, Notification API, Audit System" style="text;html=1;align=center;verticalAlign=middle;whiteSpace=wrap;rounded=0;" vertex="1" parent="lane_Integrations">
                    <mxGeometry x="-40.79" y="167.99" width="170" height="30" as="geometry"/>
                </mxCell>
            </root>
        </mxGraphModel>
    </diagram>
</mxfile>